# xmcd
#
# Track frame offsets:
#	150
#	19477
#	35702
#	49152
#	61820
#	74665
#	86125
#	105157
#	118950
#	136197
#	152702
#	166012
#
# Disc length: 2337 seconds
#
# Revision: 0
# Processed by: cddbd v1.5.2PL0 Copyright (c) Steve Scherf et al.
# Submitted via: EasyCDDAExtractor 11.1.0.1
#
DISCID=a3091f0c
DTITLE=Various Artist - Nashville music express 15
DYEAR=1900
DGENRE=country
TTITLE0=The Bellamy Brothers - Almost Jamaica
TTITLE1=Amie Comeaux - Anywhere with you
TTITLE2=Roger Bowling - Ghost of another man
TTITLE3=Troy Shondell - Hello Josephine
TTITLE4=Scott Manon - Lie lie lie
TTITLE5=Troy Shondell - Love stuff
TTITLE6=The Runaways - More than words can say
TTITLE7=Hoyt Axton and Tommy Cash - Old timers
TTITLE8=The Bellamy Brothers - Some broken hearts
TTITLE9=Jamie Cotter - Sweet dreams
TTITLE10=Don Deal - Sweet red wine
TTITLE11=Ernest and Justin Tubb - Walkin' the floor over you
EXTD=
EXTT0=
EXTT1=
EXTT2=
EXTT3=
EXTT4=
EXTT5=
EXTT6=
EXTT7=
EXTT8=
EXTT9=
EXTT10=
EXTT11=
PLAYORDER=
